<mxfile host="app.diagrams.net" modified="2021-03-28T23:13:42.401Z" agent="5.0 (Macintosh; Intel Mac OS X 10_14_3) AppleWebKit/537.36 (KHTML, like Gecko) Chrome/89.0.4389.90 Safari/537.36" etag="senYpGKwKoFm7OrQiCHB" version="14.5.1" type="github">
  <diagram id="3228e29e-7158-1315-38df-8450db1d8a1d" name="Page-1">
    <mxGraphModel dx="1070" dy="789" grid="1" gridSize="10" guides="1" tooltips="1" connect="1" arrows="1" fold="1" page="1" pageScale="1" pageWidth="800" pageHeight="600" background="#ffffff" math="0" shadow="1">
      <root>
        <mxCell id="0" />
        <mxCell id="1" parent="0" />
        <mxCell id="WelgVeyDKxLRvEI-DW8B-3" value="" style="shape=image;verticalLabelPosition=bottom;labelBackgroundColor=#ffffff;verticalAlign=top;aspect=fixed;imageAspect=0;image=data:image/jpeg,/9j/4AAQSkZJRgABAQEASABIAAD/2wBDAAgGBgcGBQgHBwcJCQgKDBQNDAsLDBkSEw8UHRofHh0aHBwgJC4nICIsIxwcKDcpLDAxNDQ0Hyc5PTgyPC4zNDL/wAALCAIAAgABAREA/8QAHAABAAMBAQEBAQAAAAAAAAAAAAUGBwgEAwIB/8QARxAAAQMCAgYFCQUHAwQCAwAAAQACAwQFBhEHEiExUWETIkFxgRQVIzJSkaGxwUJicpKiJDNTgrLC0UOj8BZFZHPS4SXi8f/aAAgBAQAAPwDdkREREREREREREREREXkrLpb7e3OtrqamHGaVrPmVAVWkjCNJmH3uF5H8Jr5P6QVD1OmXC0GyJtfUf+uED+pwUbNpxtTf3NorH/je1vyzXifp1GfUw6SOLqzL+xfF2nSc+rYIx31RP9qN06Tj1rBGe6qI/tX2Zp1GfXw6QOLazP8AsXth042p3760VjPwPa755KSptMuFp9kra+n/APZCD/S4qZpdJGEavIMvcLCf4zXx/wBQCnqO6W+4Nzoq6mqRxhla/wCRXrRERERERERERERERERERERERERERERERFHXS/2mys1rlcaal2ZhskgDj3N3nwCpF10z2Cjzbb4KmveNxDeiYfF239Kplx00Yhqs20VPSUTDuIaZHjxds+CqVwxhiO6E+WXmse072NkLGflbkPgoUkucSSSTvJX8REREREX9BLXAgkEbiFNW/GGI7WR5HeaxjRuY6QvZ+V2Y+Cttu00Yhpcm1tPSVrBvJaY3nxbs+Cudq0z2CsybcIKmged5LelYPFu39Ku9rv8Aab0zWttxpqrZmWxyAuHe3ePEKRRERERERERERERERERERERERERERfCrraWgp3VFZUxU8Ld8krw1o8Ss/vumOx2/WitcUtymGzWHo4wfxEZnwHis1vOlHFF41mNrRQwn/TpBqH83rfFU+SR80jpJXue9xzc5xzJPMr8oiIiIiIiIiIi/Ucj4ZGyRPcx7Tm1zTkQeRVws2lHFFn1WOrRXQj/Tqxrn83rfFaVYtMdjuGrFdIpbbMdmsfSRk/iAzHiPFaBSVtLX07aijqYqiF26SJ4c0+IX3RERERERERERERERERERERERF4rndrfZqQ1Vxq4qaEfakdlmeAG8nkFlWI9NW18GHqPZu8qqR8Ws+pPgsuu18ud8qfKLnWzVMnZru2N7huHgFHoiIiIiIiIiIiIiIikLTfLnY6nyi2Vs1NJ26jtju8bj4hajhzTVtZBiGj5eVUw+LmfUHwWq2y72+80jaq21cVTCftRuzyPAjeDyK9qIiIiIiIiIiIiIiIiIiIiL5VNTBR076ipmjhhjGb5JHBrWjmSsqxVpkhg16TDkQmk3Gslb1B+Fu895yHIrIrndq+81ZqrjVy1Mx+1I7PIcANwHILxoiIiIiIiIiIiIiIiIiL2W27V9nq21Vuq5aaYfajdlmOBG4jkVruFdMsM2pSYjiEL9wrIm9Q/ibvHeNnILVaaqgradlRSzRzQyDNkkbg5rhyIX1RERERERERERERERERERVDF2kS0YVa6Au8ruOWymid6v4z9n58lhOJcX3fFVV0lwqPQtOcdPHsjZ3DtPM5lQKIiIiIiIiIiIiIiIiIiIiKew1i+74Vqult9R6Fxzkp5Nsb+8dh5jIrdsI6RLRiprYA7yS45baaV3rfgP2vnyVvRERERERERERERERERfOeeKmgfPPKyKKNpc973ZNaBvJJ3LGsa6XZJ+kt+G3Oji2tfWkZOd+Adg5nbwy3rJ3vdI9z3uLnuJLnE5kniV+URERERERERERERERERERERF+mPdG9r2OLXtILXA5EHiFrGCtLskHR2/EjnSRbGsrQM3N/GO0cxt4571ssE8VTAyeCVksUjQ5j2Oza4HcQRvX0RERERERERERERERR17vlvw9bJK+4ziKFuwDe57uxrR2lc+Y00gXHFs5hBNNbWuzjpmn1uDnntPwHxVQREREREREUxbMKX+86poLTVTMduk6MtZ+Y5D4q10WhrE1Tkah9FSN7RJKXO/SCPirBS6DGDI1d9J4thpsviXfRTEGhTDkYHTVdxld2+kY0fBv1Xvi0R4RjHWo55fx1D/AKEL0N0WYMb/ANnz76mX/wCSO0WYMd/2fLuqZf8A5Lzy6I8IyDq0c8X4Kh/1JXgn0KYckB6GruMTuz0jHD4t+qh6rQYw5mkvpHBs1Nn8Q76Kv1uhrE1Nmad9FVt7BHKWu/UAPiqpc8KX+zaxr7TVQsbvk6MuZ+YZj4qHREREREREVvwXpAuOEpxCSam2udnJTOPq8XMPYfgfiug7JfLfiG2x19tnEsLthG5zD2tcOwqRRERERERERERERFBYqxXbsJ2w1da7WldmIadp68ruXAcT2e4LnPEuKLliq5GsuEvVGYihb6kTeAHzO8qFREREREQAkgAZk7grZZNG+Jr5qvjoHUsB/wBar9G3LiB6x8AtGs2hS1UzWvu9bNWSdscXo2d3a4+8K72zCOHrPkaG0UsTxukLNd4/mdmfippEREREREULc8I4evGZrrRSyvO+QM1Hn+ZuR+KpF50KWqpa59orZqOTsjl9Izu7HD3lZze9G+JrHrPkoHVUA/1qT0jcuJHrDxCqZBBIIyI3hERERERFNYaxRcsK3IVlvl2HISwu9SUcCPkd4XReFcWW7FtsFXRO1JWZCancevEefEcD2+8KeREREREREREREVdxhjChwha/KKj0tTJmKenBydIePJo7Sub75fa/EV0luFxmMkz9gA2NY3sa0dgCjkRERERfWnpp6udkFNDJNM85NjjaXOceQC0jDehu6XDUnvUwt9OdvRNydK4fJvjmeS1ixYNsOHWN832+Jsw/15BryH+Y7R4ZBTyIiIiIiIiIiIoG+4NsOImO84W+J0x/14xqSD+YbT45hZPiTQ3dLfrz2WYXCnG3onZNlaPk7wyPJZvUU09JO+CphkhmYcnRyNLXNPMFfJEREREUjY75X4eukdwt0xjmZsI3te3ta4doK6QwfjChxfa/KKf0VTHkKinJzdGePNp7CrEiIiIiIiIiIigsV4qocJ2h1bVnXkdm2CAHrSu4chxPZ7guar7fK7EV1luNwl15pDkAPVY3sa0dgCjkRERETfsC0LCWii6XzUqrpr26gO0BzfSyDk0+qOZ9xW1WLDNnw5T9FbKKOEkZOlyze/8AE47T3blLoiL8yyxwxmSWRsbG7S55yA8VWLnpGwpatYS3aKaQfYpgZSfFuweJVOuGnGkY4tttmmlb2PqJQz9IB+ar1XppxHNmKemoKZvYRG5zveXZfBQNVpJxdVnr3qZg4RMZHl+UBeCTGOJpfWv9z8Kp4+RXlkxBepf3l3r3/iqXn6pHiC9Rfu7vXs/DUvH1XqjxjiaL1b/c/GqefmV76XSTi6kPUvUzxwlYyTP8wKnqTTTiOHIVFNQVLe0mNzXe8Oy+CsNv040j3Btys00Te19PKH/pIHzVxtmkbCl11RFdooZD9ipBiI8XbD4FWeKWOaMSRSNkY7aHMOYPiv0iIoi+4Zs+I6fornRRzEDJsuWT2fhcNo7tyxXFuii6WPXqrXr3GgG0hrfSxjm0esOY9wWe7thRERERFI2O+V2HrrFcbfLqTRnaD6r29rXDtBXSuE8VUOLbQ2tpDqStybPAT1oncOYPYe33hTqIiIiIiIiIo6+Xuiw9aZrjXyakMQ2Aes93Y1o7SVzPijEtbiq8yXCsOTfVhiB6sTOxo+p7SoVERERFK2DDlzxLcBR2ynMjthfIdjIxxcez5nsW84S0a2fDIjqZWiuuIyPTyt6rD9xvZ37+5XVERVW/6RMOYee+KorfKKlu+CmGu4HgT6oPInNZre9NN2q9aO0UcVDGdglk9LJ37eqPcVn1yvNyvE3TXGuqKp/Z0ryQO4bh4LwoiIiIiIi91tvNys83TW6uqKV/b0TyAe8bj4rQbJppu1Jqx3ejiroxsMsfopO/Z1T7gtKsGkTDmIXsip63yepdugqRqOJ4A+qTyBzVqREVKxbo1s+JhJUxNFDcTmenib1Xn77e3v396wa/4cueGrgaO505jdtLJBtZIOLT2/MdqikREREUzhfEtbhW8x3CjOY9WaInqys7Wn6HsK6Zsd7osQ2mG5UEmvDKNoPrMd2tcOwhSKIiIiIiIi+c88VNBJPPI2OKNpc97jkGtG0klc36QMaS4tvGUJcy205LaeM7Nbi8jifgPFVBERERFeME6N7hilzKup1qS1Z/vSOvLyYD/UdnfuW+Wey2+w29lDbaZkELewb3Hi47yeZXvRFTsUaSbHhlz6cvNbXN2GngI6p++7c3u2nksdxJpKxBiLXi8o8io3bOgpiW5j7zt5+XJU9EREREREREREVxw3pKxBh3Ui6fy2jbs6CpJdkPuu3j5clsOF9JNjxM5lOHmirnbBTzkdY/cdud3bDyVxRF4LxZbffre+huVMyeF3Yd7Txad4PMLA8baN7hhZz6um1qu1Z/vQOvFyeB/UNnduVHRERERW/R/jSXCV4ymLn22oIbURjbq8HgcR8R4LpCCeKpgjngkbJFI0OY9pzDmnaCCvoiIiIiIiLFtLuNenmOG7fL6KMg1j2n1nDdH3DeeeQ7CslRERERaho80YvuvRXe+xOZQ7HQ0x2On4F3Bvz7t+4sjZFG2ONjWMaA1rWjIADcAF+kUZfMQWzDlCay51TYY9zW73PPBo3krEsW6WLpe9ektWvb6E7CWn0sg5uHqjkPeVnhOe0oiIiIiIiIiIiIiZ5bQtDwlpYulk1KS669woRsBcfSxjk4+sOR94W22PEFsxHQistlU2aPc5u5zDwcN4Kk0X5kjZLG6ORrXscC1zXDMEHeCFh2kPRi+1dLd7FE59DtdNTDa6DiW8W/Lu3ZeiIiIi1rRFjXoJhhu4S+ikJNG9x9Vx3x9x3jnmO0LaUREREREVQ0iYuGFcPuMDx5xqs46Yezxf4Z+8hc2ve6R7nvcXPcSXOJzJJ7SvyiIiItd0a6NWVEcN9vsOcZyfS0rxscOx7xw4Dt3nYtm3bAiKk410j27CzH0tPq1l0y2QA9WPm8jd3b+7esDvV8uOILg+tuVS6aZ2wZ7GsHBo3AKORERERfano6msfqU1PNO7hEwuPwUv8A9GYkFHNVvs1ZFTwxulkfNH0Ya1ozJ62XYFBIiKWpsL32tt0dfSWmrqKWTPVkhjLwciQd2Z3gqPqKSpo36lTTywP4SsLT8V8UREREUjZb5ccP3Blbbal0Mzdhy2teODhuIW+YK0j27FLGUtRq0d0y2wOPVk5sJ392/v3q7Im/YVjOkrRqynjmvtihyjGb6qkYNjR2vYOHEdm8bFkSIiIi/THuje17HFr2kFrgciCO0LpLR3i4Yqw+0zvHnGlyjqR7XB/jl7wVb0RERERfKpqYaOlmqaiQRwwsL5Hnc1oGZK5fxfiWfFWIZ7hJrNh9SnjP2IxuHed55lQKIiIi1DRjo886yR3y7w/sDDnTwPH79w+0R7I+Pdv3PdsCIsq0h6T22/pbPYZQ6r2tnq2nMRcWt4u59nfuxJ73SPc97i5zjmSTmSeK/iIiIpez4Yvd/eBbLdPO3PIyBuqwd7jkB71otk0IzP1ZL3cmxDthpBrO/O4ZD3FXq2aM8KWzVLbWypkH26pxkz/lPV+CtMFPDTRNip4Y4oxuZG0NA8AoPHMnRYFvbuNI9vvGX1XLiIi6I0Qya+j+nb7E8rf1Z/VXeenhqojFUQxyxu3skaHA+BVVuejPClzzc61sppD9ulcY8v5R1fgqNe9CM8etJZLk2UdkNWNV3g9uw+4LObxhi9WB5bc7dPTtzyEhbmw9zhmD71EoiIi/rHuje17HFrmnMEHIg8VtujzSe24dFZ79KG1exsFW45CXg13B3Pt79+qom/YVhmk7R55qkkvloh/YXnOogYP3Dj9oD2T8O7dl6IiIinsIYlnwriGC4R6zofUqIx9uM7x3jeOYXUFLUw1lLDVU8gkhmYHxvG5zSMwV9UREREWS6ZMVdBTR4cpJPSSgS1ZB3N+y3xO08gOKxZERERXfRvgl2Kbt5TVsPmqlcDKd3Su3hg+Z5d4XRUcbIo2xxsaxjAGta0ZAAbgAv0ix3SVpKe2SaxWKfV1c2VVWw7c+1jD8z4BY8iIiKfw3g29Ypmyt1NlA05PqJerG3x7TyGZWw4b0RWS06k9zJudUNuUgyiaeTe3xzHJaDHGyKNscbGsY0ZNa0ZADgAv0iKp6TJOi0d3d3FjG++Ro+q5oREW/6F5NfBEzfYrZG/pYfqtERF+ZI2TRujlY17HDJzXDMEcCFnuJNENlu2vPaybZUnbkwa0Tj+H7Phs5LH8SYNvWFptW403oScmVEXWjd49h5HIqARERFsOjXSU90kNivs+trZMpat5259jHn5HwK2JF+ZGMljdHIxr2OBa5rhmCDvBC520kYJOFrt5TSMPmqqcTF29E7eWH5jl3FUdERERbRobxX01PJhyrk9JEDLSEne3e5vgdo5E8FraIiIi8V2udPZrTVXGqdlDTxl7uJ4AcycgO9cq3a51F5u1Vcap2c1RIXu4DPcByAyA7l40RERSuHbBV4lvUFso29eQ5veRsjYN7jyHzyC6eslmpLBaKe20LNWGFuWZ3uPa48ydqkEWV6T9Ifm9kths837W4atTOw/uh7LT7XE9nfuxBERF9aemnq6iOnponzTSO1WRxtJc48AAtiwhoeiibHW4kPSSbHCijd1W/jcN/cNnMrWIKeGlgZBTxMihjGqyONoa1o4ADcvoiIio+lqTo9HtY3+JLE39YP0XOiIi3TQhJnhi4R+zWl3vY3/C09ERF86inhqqd8FREyaGQar45GhzXDgQd6yfF+h2KRslbhp3RybXGikd1Xfgcd3cdnMLHainmpKiSnqYnxTRu1XxvaQ5p4EFfJERFt+jDSH5wZFYbxN+1tGrTTvP70ey4+1wPb379UReC9Wekv1pqLbXM1oZm5Hi09jhzB2rmDEdgq8NXue2Vg60ZzZIBskYdzh3/AAOYUUiIiL2Wq5VFnutLcaV2rNTyB7eBy3g8iNh711VaLpT3q0UtypTnDURh7eI4g8wcwe5e1EREWO6asRn9lw9A/hUVOR/I0/E5fhWPIiIiLo7RphIYaw82apjyuNYBJNmNrG/ZZ4bzzJ4K6oqTpHxq3Ctn6CleDdKppEI39G3cXn6c+4rnR73SPc97i57iSSTmSeJX5REUth7DlxxPdGUFui1nHa+Q7GRt9px7B810LhDAtrwjTgwN6euc3KSrkHWPJo+yOXvJVoREREWeaZ5OjwPG3P8AeVkbf0vP0XP6Ii2rQZJnbLxH7M0bve0/4WsoiIiKrYvwJa8XU5dM3yeva3KOrjb1hycPtDl7iFz1iHDtxwzdH0Fxi1XjayQbWSN9pp7R8lFIiL9Me6N7XscWvaQQQciDxC6L0cY1biqz9BVPAulK0CYbukbuDx9efeFdkVK0l4SGJsPOlpo87jRgyQ5Da8faZ47xzA4rnHdsKIiIi2DQriM61Vh6d+zbUU2Z/O0fA5fiWxoiIvhW1cNBQ1FZUO1YYI3SSO4BozK5Tvl2mvl7rLnUfvKiQvyz9UdjfAZDwUeiIiLQdFGEvPt9851UedBQODsiNkku9re4bz4cV0EijMQXylw5Zai6Vh9HC3YwHa9x3NHMlcwXy9VeILxUXKtfrTTOzyG5g7GjkAo5ERT2FMKV+LbqKOjGpEzJ087h1Ym/UnsHb7yuj8O4ct2GLWyht0Wq3fJI715Xe04/8yUsiIiIizDTfJlhi3xZ+tWB3uY7/KwtERbBoKk699j4iBw/3FsaIiIiKIxHhu3Yntb6G4Razd8cjfXid7TT/wAzXOGK8KV+ErqaOsGvG7N0E7R1ZW8eR4js9xUEiIpGx3qrw/eKe5UT9WaF2eR3PHa08iF0/h++UuI7LT3SjPo5m7WE7WOG9p5gqTRc/aV8JeY7550pY8qCvcXEAbI5d7m9x3jx4LPURERe+yXWax3qjudP+8ppA/LP1h2t7iMx4rq2irIbhQ09ZTu1oZ42yMPEOGYX3REWcaY775vwxHa4n5TXB+Tst4jbkXe86o96wNEREX0p6eWrqYqeBhfNK8MYwb3OJyA966owxYocN4do7ZEGkxMzlePtyHa53v8AhkpdFz/pYxb57vnmqkkzoaBxaSDskl3OPcNw8eKzxERSuHcPV2JrxFbqBmb3bXyH1Y29rncvnuXS+G8O0OGLPHb6FnVb1pJCOtK7tcf+bFLoiIiIiyTTnJlQ2aL2pZXe4N/ysXREWraDZMrxdo/ap2O9zj/lbaiIiIiKIxJhyhxRZ5LfXM2O60cgHWif2OH/ADauaMRYfrsM3iW3V7Mnt2sePVkb2Oby/wD4opERaHonxb5kvnmqrkyoa9waCTsjl3NPcdx8OC6ARRGJrFDiPD1ZbJQAZWHo3keo8bWu9/wzXLFTTy0lVLTTsLJonlj2He1wORHvXyRERFvmhu++cMMS2uV+c1vfk3PeY3Zke46w9y0dERc3aUbz54xxVtY7OGjypY+9vrfqLvcFTURERaZocw35wvst6nZnBQjVizGx0rh9Bt7yFu6KnaScUHDOGHmnfq11WTDAQdrdnWf4D4kLm0nPaUREW2aJr1hWhtQoWVIgu07tac1IDOkPY1jtxA7BnnmSclq6IiIiIixnTpJnVWSL2WTO95Z/hZEiItM0IyZYsro/aoXO9z2f5W7oiIiIi+NVV09FTvqKueOCFgzdJI4NaBzJWJaT8bYexHSx0NBTyVNRA/WZW+o1vEAEZuB8NwO1ZeiImeW0LpLRtig4mwww1D9aupCIZyTtds6r/EfEFXFFhOmTDfm++RXqBmUFcNWXIbGytH1G3vBWZIiIiuWi68+Z8cUjXuyhrM6WTvd6v6g33ldIoijr/dG2WwV9ydl+zQOe0Htdl1R4nILk+SR80r5ZHFz3uLnOO8k7yvyiIiAEnIDMldS4MsTcO4VobfqBswYJJ+cjtrvdu7gFPIubdJWJP+osWz9E/Wo6POCDI7Dkes7xOfgAqciIiK4Ya0k3/DmpCJ/LKNuzyeoJOQ+67e35clsOGtJlgxFqQmbyGsds6CoIAJ+67cfgeSuSIiIiLDdOEmeIrbF7NIXe95/wsuREWhaGZNTHLm+3RyN+LT9F0CiIiIvnUVEFJA+eomjhhYM3SSODWtHEk7lmmJtMluoNensUPl042dPJm2Jp5drvgOayG+Ylu+I6jprpWyT5HNseeTGfhaNg+aiURERXHRriT/p3FsHSv1aOsygnzOwZnqu8Dl4ErpJFBYxsTcRYVrrfqB0xjL4OUjdrfedncSuWSCCQRkRvCIiIv1HI+GVksbi17HBzXDeCNxXWFgujb1YKC5Ny/aIGvcB2Oy6w8DmFIos30z3XyPCcFva7J9bOARxYzrH9WosERERFbNHFk8+Y2oYns1oKc+UzcMm7QPF2qPFdLoqrpEv7sPYNq6iJ+rUz5U8B7Q528jmGhx7wFzMiIiIiK34a0k3/AA5qQtn8so27PJ6gkgD7rt7flyWxYa0mWDEWpCZvIax2zoKggAn7rtx+B5K5IiIiwHTTJr42gb/DoY2/qefqs6REV40SSamkKjb7cUrf0E/RdFoiIvxNNFTwvmmkZHEwZue9wDWjiSdyzfE2mK123Xp7LH5wqRs6U5thae/e7wyHNZBfsU3nEs/SXOtfK0HNkQ6sbO5o2eO9QyIiIiIumdHd/diHBtJUSv1qmDOnnPaXN3E8y0tPeSrUi5o0kWTzHjatjY3VgqT5TFwydvHg7WHgqmiIiLe9DF18rwpPb3OzfRTnIcGP6w/VrrSEWCaaLj5Vi6Cia7NlHTAEcHOOsfhqrN0RERbloUswp7FWXd7fSVUvRMPBjP8ALifyhaiiwvTTe/K7/S2iN+cdFHryAfxH7cvBoH5iswRERERERW/DWki/4c1IRP5ZRt2eT1BLgB9129vy5LYsNaTLBiLUhdN5DWO2dBUEAOP3Xbj8DyVyRCQBmTkAqLiPSrYLE58FM83KrbsLKdw1Gnm/d7s1iGKcR1GKr5Jc6mGOFzmtY2OPMgAbtp3lQqIilcN32bDd/pbtBEyV9OXejeSA4OaWndyJW64b0qWC/OZBUPNuq3bBHUOGo48Gv3e/JXnPPaEX5kkjhjdJK9rGNGbnOOQA4krOsTaX7RatentDfOVUNmuDlC0/i+14bOax/EGLr1iabWuVY50QObYGdWNvc0fM5nmoNERERERFp+ha9+SX+qtEj8o62PXjB/iM25eLSfyhboiy/TXZm1NhpLuxvpKSXo3n7j/8OA/MVhiIiItH0L3HyXF81E52TKymcAOLmkOHw1lviLlfGFwN0xjdqzPMPqXtYfutOq34AKERERF1ThC2eZ8I2uhLdV8dO0vHB7us74kqaX4llZBC+WRwayNpc4nsAGZK5MvFylvF5rLjMTr1MzpCOAJ2DwGQ8F4kRSuGrM/EGI6G1tzAqJQHkb2sG1x8GgqxYv0Z3XDJfVU4NdbRt6aNvWjH329neNnduVIRERERW/DWki/4c1IWz+WUTdnk9QS4Afddvb8uS1i16W8NV1ukqKqWSiniZrOp5GlxdyYRsd8DyWXYx0k3XE75KaBzqO2E5CBh60g++e3u3d+9UlERERFfMF6Trjhox0ddr1tsGwMJ68Q+4T2fdOzhktAvumOx0NK3zSyS4VL2ggEGNjM/aJGefIDxCyLEWM75ieQ+cKx3QZ5tpourG3w7e85lQCIiIi/cUUk8rIoY3SSPIa1jBmXE9gA3rWMHaH5JujrsS5xx7HNomO6zvxkbu4beY3LOsTWd1gxJX2xwOrBKQwntYdrT+UhRKIvbZ7lLZ7zR3GEnXppmyAcQDtHiMx4rrOKVk8LJY3BzJGhzSO0EZgr9qFxdbPPGErpQBus+WncWDi9vWb+oBcrIiIim8H3A2vGFprM8gypY15+646rvgSuqF5LpWC32mtrTup4Hyn+VpP0XJBJc4lxzJOZK/iIiKYwrbPPGKrZQFusyWobrj7gObv0grqtFVdI9z814DucgdlJNH5OzmXnVP6ST4LmZERa3oRsnSVVfe5G7IgKaE/eORcfAav5itoIB2FZvjDRNb7z0lZZtSgrjmTHllDIe4eqeY2cu1YldrNcLFXOo7lSyU87ex42OHEHcRzC8KIiIiIiIiIiIiIiIiKxYXwXd8WVGrRQ6lM05SVUmxjOWfaeQ+C3nCeA7RhOIPgj8oriMn1co63MNH2R3eJKtCxfTdZOjqqC9xt2Sg00x+8My0+I1vyhZIiIumdHFz86YDtkhdnJDH5O/kWHVH6QD4q1IuVcV2zzPiu6UAbqsiqHag+4Tm39JChkREX9BLXAtORBzBXW9rrBcLTR1o3VEDJR/M0H6qB0kVXkmj67vByLomxfmc1v1XMqIiItC0NUXlON3VBGylpXvB5nJvycV0CiyXTjcCygtNtadksj53j8IAb/U73LFkRF0roztnmzAVuaW5SVDTUv565zb+nVVuRR16sVtxBQuo7nSsniPqk7HMPFp3g9yw/GGiq5WHpKy169fbxmTkPSxD7wG8cx4gLPUREREREREREREREX7hglqZmQQRPlledVjGNLnOPAAb1rmDtD7n9HXYlza31m0THbT+Nw3dw9/YtfpqaCjp46emhjhhjGqyONoa1o4ABfVFUdJls854CuLQ3OSnaKlnLUObv06y5qREW06DrgX0F2trjsikZOwfiBDv6W+9a0i5/0y0Xk2NmVAHVqqVjyeYJb8mhZ4iIiLprRvVeV6PrQ8nMtidF+Vzm/RQ2mWp6DAzYgf39XGz3Bzv7Vz8iIiLYtBlL1b1VkdsUTT+Yn+1bCiwTTTV9NjGnpwerT0jQR95znE/DVWboi+1JTuq62CmZ600jYx3k5fVdc08EdLTRU8TdWOJgYwcABkF9ERFQ8YaL7XiLpKuh1aC5HaXsb6OQ/eaO3mNvHNYZfcO3TDdcaS6UroX7dR+9kg4tduP/M1FoiIiL22q0V98r2UNupn1FQ/aGt7BxJOwDmVrlg0KUscTJb9WySzHaYKY6rByLiMz4ZK7U2j/ClI1ojsVI7L+K0yf1Zr+VWj/ClW1wksVI3P+E0xn9JCpWINClM+J81grXxyjaIKk6zDyDgMx45rIrraa+yV76G40z6eoZvY7tHEHcRzC8aIiIismFcEXjFk/wCxxdFSA5SVUoyY3kPaPIeOS3nCmBrRhOAGli6ascMpKuUZvPED2RyHjmrMiIvnUQR1VNLTyt1o5WFjxxBGRXI1XTupK2emf60Mjoz3g5fRfFEWkaFqvocY1FOT1aikcAPvNc0j4ay3tFkGnOlzjstWBuMsTj36pHyKxtEREXQOhqp6fAzoyf3FXIzwIa7+5RunGbVsVrhz9epc73Ny/uWIIiIi3rQpAI8H1U2XWlrXbeQYwfPNaSi5n0k1Rq9IN3fnsZI2IctVob8wVVERWLAdJ5bjuyw5Z5VLZSPwdf8AtXUKIiIvHc7VQ3mhfR3GljqKd+9jxuPEHeDzG1YrjDRHW2vpK2xF9bSDNzoDtljHL2x3beR3rMyC1xBBBByIPYv4iIvdZ7TV3y609toY9eondqtz3AbyTyAzJXS+FMKUGE7UykpGB0zgDPUEdaV3E8BwHZ7yp5ERQGLMJ0GLLU+lqmNbUNBMFQB1onfUcR29+RXNF2tVXZLpUW6uj1KiB2q4dh4EciMiO9eJERfWnp56uoZT00T5ppDqsjjaXOceAAWu4O0PAdHXYl2nY5tCx39bh8h7+xa7BBDSwMgp4mRQxjVZGxoa1o4ADcvoiIiLl7HlJ5Fju8w5ZZ1LpQPx9f8AuVdRFa9G1UaTSDaH57HyOiPPWaW/MhdMIs401QCTBtNLl1oq1hz5Frx/hYGiIiLb9B02tY7rBn6lS1/5m5f2rxadXnVsLM9hNQ4/7f8A9rHURERdFaI4hHo+pXfxJpXfqI+ivKLlfGMnS41vjv8Azph7nkfRQiIr1oiiEmkCmcRn0cMrhy6uX1XRKIiIiKlY00e2bEdPNWkCir2tLjUxt2OyH22/a79/PsXOKIi2rQpYGR0FVfpWZzSvNPCT2MGRcR3nZ/KtZRERFkmmuwMfR0l/hZlLG4U85Ha05lpPccx/MFi6Ii6ewlg2zYYo2PoIulnlYC+rkAL3g8PZHIfFWVERERFztpdiEekCpcBl0kMTjz6uX0VFRFN4Ok6LGtjd/wCdCPe8D6rqhFR9LcQk0e1jv4csTv1gfVc6IiIi2LQU8/8A55mez0Dh/uL46dHZ1VkbwZMfeWf4WRoiIi6R0Vt1dHFqPEzH/derki5NxBJ0uJLpJ7dXK73vKjkRaJoXj18byu9iikd+pg+q39ERERFE4olMGErzKDkWUMzgeeoclykiIuoMA0wpMB2aMNA1qZsni/rf3KxoiIirWkGmFXgG8xloOrTmQd7SHfRcwoiLq7DMpnwpZ5Scy+ihcT3sClUREREWAaaI9TG8Tvboo3fqePos7RFI4fk6LElrk9irid7nhdZIqdpTbraOLry6I/7rFzaiIiLXNBbsqu9t4shPxf8A5TTo3KqsjuLJh7iz/KyNEREXSOit2to4tQ4GYf7r1ckXJuII+ixJdI/Yq5W+55UciLRNC8mpjeVvt0Ujf1MP0W/oiIiIonFMRnwjeYgMy+hmAHPUOS5SREXUGAakVeA7NIHA6tM2PxZ1f7VY0RERVrSDUikwDeZC4DWpzGO9xDfquYURF1dhmIwYUs8RGRZRQtI7mBSqIiIiLANNEmvjeJvsUUbf1PP1WdoikcPx9LiS1x+3VxN97wuskVO0pu1dHF159EP91i5tRERFrmgtudXe3cGQj4v/AML7adWHVsL8tgNQ0/7f/wBrHURERdFaI5RJo+pW/wAOaVv6ifqryi5XxjH0WNb43/zpj73k/VQiIr1oilEekCmaTl0kMrRz6uf0XRKIiIiKl4z0hWbDkE1ESK2vc0tNNG7Y3Mfbd9nu38lzgiItq0KX9klBVWGV+U0TzUQg9rDkHAdx2/zLWURERZJprv7GUdJYIX5yyOFROB2NGYaD3nM/yhYuiIunsJYys2J6NjKCXop4mAPpJCA9gHD2hzHwVlRERERc7aXZRJpAqWg59HDE08urn9VRURTeDo+lxrY2/wDnQn3PB+i6oRUfS3KI9HtY3+JLE39YP0XOiIiIti0FMP8A+efls9A0f7i9unGHWsVrmy9Spc33tz/tWIIiIi3rQpOJMH1UOfWirXbORYw/PNaSi5n0k0ppNIN3ZlsfI2Uc9Zod8yVVERWLAdX5FjuyzZ5Z1LYifx9T+5dQoiIi8lzulDZ6F9ZcaqOnp2b3vPbwA3k8htWK4w0uVtz6SisIfRUhza6oOyWQcvYHdt5jcsyc4ucXOJJJzJPav4iIvdZ7tV2O609yoZNSogdrNz3EbiDyIzBXS+FMV0GLLUyrpHhszQBPTk9aJ3A8RwPb7wp5ERQGLMWUGE7U+qqntdUOBEFOD1pXfQcT2d+QXNF2utXe7pUXGuk16id2s49g4AcgMgO5eJERfWnqJ6SoZUU0r4ZozrMkjcWuaeIIWu4O0wg9HQ4l2HY1tcxv9bR8x7u1a7BPDVQMnp5WSwyDWZIxwc1w4gjevoiIiLl7HlX5bju8zZ55VLogfwdT+1V1EVr0bUpq9INoZlsZI6U8tVpd8wF0wizjTVOI8G00WfWlrWDLkGvP+FgaIiItv0HQ6tjus+Xr1LWflbn/AHKS0y03T4GbKB+4q43+8Ob/AHLn5EREWxaDKrq3qkJ7YpWj8wP9q2FFgmmmk6HGNPUAdWopGkn7zXOB+Gqs3RF9qSodSVsFSz1oZGyDvBz+i65p546qmiqIna0crA9h4gjML6IiKiYw0oWvDnSUlFq19yGwxsd6OM/fcO3kNvHJYZfcRXTElcaq51TpXDPUZuZGODW7h/zNRSIiIi9tqu9fY69ldbql9PUM2Bze0cCDsI5Fa5YNNdLJEyK/UUkUw2GemGsw8y0nMeGau1NpAwpVtaY77SNz/iuMf9WS/lVpAwpSNcZL7SOy/hOMh/SCqViDTXTMifDYKJ8kp2CepGqwcw0HM+OSyK63avvde+uuNS+oqH73u7BwA3AcgvGiIiIrJhXG94wnP+xy9LSE5yUspzY7mPZPMeOa3nCmObRiyACll6GsaM5KSU5PHEj2hzHjkrMiIvnUTx0tNLUSu1Y4mF7zwAGZXI1XUOq62epf600jpD3k5/VfFEWkaFqTpsY1FQR1aekcQfvOc0D4ay3tFkGnOqyjstIDvMsrh3aoHzKxtEREXQOhqm6DAzpCP39XI/wAa3+1TOkil8r0fXdgGZbE2X8rmu+i5lRERFoWhqt8mxu6nJ2VVK9gHMZO+TSugUWS6cbeX0FpuTRsikfA8/iALf6Xe9YsiIuldGdz854Ctzi7OSnaaZ/LUOTf06qtyKOvN9tuH6F1Zc6pkEQ3Z+s88GjeT3LEMYaVrlfeko7Vr0FvOwkH0so5keqOQ95WeIiIiIiIiIiIiIiIv3DPLTTMnglfFKw6zHscWuaeII3LXMHaYHM6OhxLm5vqtrWN2j8bRv7x7u1a/TVMFZTx1FNNHNDINZkkbg5rhxBC+qKo6TLn5swFcXB2UlQ0UzOeucnfp1lzUiItp0HW8soLtcnDZLIyBh/CCXf1N9y1pFz/AKZa3ynGzKcHq0tKxhHMku+Tgs8RERF01o3pfJNH1oYRkXROl/M5zvqp66UYuFpraI7qiB8R/maR9VyQQWuIcMiDkQv4iIimMK3PzPiq2V5dqsiqG65+4Tk79JK6rRVXSPbPOmA7nGG5yQx+UM5Fh1j+kEeK5mREWt6Eb30dVX2SR2yUCphH3hkHDxGr+UraN20rOcYaWLdZeko7PqV9cMwZAc4ozzI9Y8hs59ixG73q432udWXKqkqJndrjsaODRuA5BeBERERERERERERERERFYsL40u+E6jWoptemcc5KWTax/PLsPMfFbzhPHloxZEGQSeT1wGb6SU9bmWn7Q7vEBWhYvpuvfSVVBZI3bIgamYfeOYaPAa35gskREXTOji2ea8B2yMtykmj8ofzLzrD9JA8FakXKuK7n54xXdK8O1mS1DtQ/cByb+kBQyIiL+gFzgGjMk5ALre10Yt9po6IbqeBkQ/laB9F61yvjC3m14xu1HlkGVL3MH3XHWb8CFCIiIi6pwhc/PGEbXXF2s+SnaHni9vVd8QVNL8SxMnhfFI0OZI0tcD2gjIhcmXi2y2e81lumB16aZ0ZPEA7D4jI+K8SIpXDV5fh/EdBdG5kQSgvA3uYdjh4tJVjxhpNuuJdelpi6htp2dEx3XkH33fQbO9UdERERFb8NaOL/AIk1JmQeR0btvlFQC0Efdbvd8ua1e16I8NUVukp6qKStnlZquqJHFpbzYBsb8Ssuxjo2uuGHyVMDXVlsBzE7B1ox98dnfu7typSIiIiK94L0ZXHEpjrK3XorYdvSEdeUfcB7PvHZwzWgXzQ3ZK2lb5pkkoKljQ0EuMjH5drgdoPMHwWR4iwbfMMSEXGjd0GeTaiLrRu/m7O45FQCIiIi/cUskErJYZHRyMIc17DkWkdoI3LWMHaYJIejocS5yR7GtrWN6zfxgb+8beR3rOsTXh1/xJX3NxOrPKSwHsYNjR+UBRKIvbZ7bLeLzR26EHXqZmxg8ATtPgMz4LrOKJkELIo2hrI2hrQOwAZAL9qFxdc/M+ErpXh2q+KncGHg93Vb+ohcrIiIim8H283TGFpo8sw+pY54+606zvgCuqEWCaaLd5Li6Cta3JlZTAk8XNOqfhqrN0RERbloUvIqLFWWh7vSUsvSsHFj/wDDgfzBaiiwvTTZPJL/AEt3jZlHWx6khH8RmzPxaR+UrMEREREREVvw1o4v+JNSZkHkdG7b5RUAtBH3W73fLmthw1oysGHtSZ8Pl9Y3b09QAQ0/dbuHxPNXNEIBGRGYKouI9FVgvrnT0zTbat20vp2jUcebN3uyWIYpw3UYVvj7ZUzRzOa1r2yR5gFp3bDuKhURFK4bsc2JL/S2mCVkUk5d6R4JDQ1pcd3IFbphvRVYLE5k9S03KrbtD6ho1GniGbvfmr0AAMgMgEX5kjZNG6OVjXscMnNcMwRwIWdYm0QWi669RaH+bao7dQDOFx/Dvb4bOSx7EGEb1hmbUuVG5kROTZ2daN3c4fI5HkoRERERERFp+hayeV3+qu8jM46KPUjJ/iP2Z+DQfzBboiy/TXeW01hpLQx3pKuXpHj7jP8ALiPylYYiIiLR9C9u8qxfNWubmyjpnEHg5xDR8NZb4izfTPavLMJwXBrc30U4JPBj+qf1aiwREREVs0cXvzHjahle/VgqD5NNwydsB8Hap8F0uiqukSwOxDg2rp4ma1TBlUQDtLm7wOZaXDvIXMyIiIiIrfhrRxf8SakzYPI6N23yioBaCPut3u+XNbDhrRnYMO6kzofLqxu3p6gAhp+63cPieauaIiIsC00x6mNad/t0LHfrePos5REV40SR6+kKjd7EUrv0EfVdFoiIvxNDFUQvhniZLE8ZOY9oc1w4EHes2xNodtdx16iyyeb6k7eidm6Fx+bfDMclkF+wteMNT9Fc6J8TScmSjrRv7nDZ4b1DoiIiIi6Z0d2B2HsG0lPKzVqZ86icdoc7cDzDQ0d4KtSLmjSRe/PmNq2RjtaCmPk0XDJu8+LtY+KqaIiIt70MWryTCk9wc3J9bOcjxYzqj9WutIRR1/tbb1YK+2uy/aYHMaT2Oy6p8DkVyfJG+GV8UjS17HFrmneCN4X5RERASDmDkQupcGX1uIsK0Nw1w6YsEc/KRux3v39xCnkXNukrDf8A07i2fomatHWZzwZDYMz1m+Bz8CFTkRERW/DWji/4k1JmQeR0btvlFQC0Efdbvd8ua2HDWjKwYd1Jnw+XVjdvT1ABDT91u4fE81c0REREWHacI8sQ2yX2qQt9zz/lZaiItC0NR6+OXO9ijkd8Wj6roFERERfOop4KuB8FTDHNC8ZOjkaHNcOYO9ZnibQ3b67XqLFN5DOdvQSZuiceR3t+I5LIb5hq74cqehulFJBmcmyZZsf+Fw2H5qKRERFcdGuG/wDqLFsHSs1qOjynnzGw5Hqt8Tl4ArpJFBYxvrcO4VrrhrhswjLIOcjtjfcdvcCuWSSSSTmTvKIiIv1HG+aVkUbS573BrWjeSdwXWFgtbbLYKC2ty/Z4GscR2uy6x8TmVIoi5u0o2bzPjircxuUNZlVR97vW/UHe8KmoiIi0zQ5iTzffZbLO/KCuGtFmdjZWj6jZ3gLd0VO0k4XOJsMPFOzWrqQmaAAbXbOszxHxAXNpGWwoiItr0TWPCtfaxXtphUXaB2U4qSH9GexzG7sj2HLPMHatYREREREWM6dI8qmyS+0yZvuLP8rIkRFpmhGPPFldJ7NC5vvez/C3dEREREXxqqSnrqZ9PVwRzwPGTo5GhzT3grEtJ+CcP4cpY66gqZKaed+qyi9druJBJzaB47wNiy9ERMs9gXSWjbC5wzhhgqGatdVkTTgja3Z1WeA+JKuKLCdMmJPOF8issD84KEa0uR2OlcPoNneSsyRERFctF1m88Y4pHPbnDR51Une31f1FvuK6RREWcaY7F5wwxHdImZzW9+bst5jdkHe46p96wNEREX0p6iWkqYqiB5ZNE8PY8b2uBzB966owxfYcSYdo7nEWgysylYPsSDY5vv8AhkpdFz/pYwl5kvnnWkjyoa9xcQBsjl3uHcd48eCzxERSuHcQ12GbxFcaB+T27Hxn1ZG9rXcvlvXS+G8RUOJ7PHcKF/Vd1ZIyetE7taf+bVLoiIiIiyXTnHnQWaX2ZZW+8N/wsWREWraDY87xdpPZp2N97v8A6W2oiIiIiiMSYjocL2eS4Vz9jerHGD1pX9jR/wA2LmjEWIK7E14luNe/N7tjGD1Y29jW8v8A+qKREWh6J8Jee7551q486GgcHAEbJJd7R3DefDiugEURia+w4cw9WXOUgmJh6NhPrvOxrff8M1yxU1EtXVS1M7y+aV5e953ucTmT718kRERb5obsXm/DEt0lZlNcH5tz3iNuYHvOsfctHREXwraSGvoaijqG60M8bo5G8Q4ZFcp3y0zWO91lsqP3lPIWZ5esOx3iMj4qPRERFoOijFvmK++bKqTKgr3BuZOyOXc13cdx8OC6CRRmILHS4jstRa6wejmbseBtY4bnDmCuYL5ZavD94qLbWs1ZoXZZjc8djhyIUciIp7CmK6/CV1FZRnXifk2eBx6srfoR2Hs94XR+HcR27E9rZXW6XWbukjd68TvZcP8AmalkREREWYab488L2+X2a0N97Hf4WFoiLYNBUfXvsnAQNH+4tjRERERRGI8SW7DFrfXXCXVbujjb68rvZaP+ZLnDFeK6/Ft1NZWHUjbm2CBp6sTeHM8T2+4KCREUjY7LV4gvFPbaJmtNM7LM7mDtceQC6fw/Y6XDllp7XRj0cLdryNr3He48yVJouftK+LfPl8810smdBQOLSQdkku5zu4bh48VnqIiIvfZLVNfL1R2yn/eVMgZnl6o7XdwGZ8F1bRUcNvoaejp26sMEbY2DgGjIL7oiIsd01YcP7LiGBnCnqch+Rx+Iz/CseREREXR2jTFoxLh5sNTJncaMCObM7Xt+y/x3HmDxV1RUnSPgpuKrP09KwC6UrSYTu6Ru8sP0595XOj2Oje5j2lr2kggjIg8CvyiIpbD2I7jhi6Mr7dLquGx8Z2skb7Lh2j5LoXCGOrXi6nAgd0Fc1uclJIesObT9oc/eArQiIiIs80zR6+B2O/h1kbv0uH1XP6Ii2rQZHlbLxJ7U0bfc0/5WsoiIiKrYvx3a8I05bM7yivc3OOkjd1jzcfsjn7gVz1iHEVxxNdH19xl1nnYyMbGRt9lo7B81FIiL9MY6R7WMaXPcQAAMyTwC6L0cYKbhWz9PVMBulU0GY7+jbvDB9efcFdkVK0l4tGGcPOippMrjWAxw5Hawfaf4bhzI4LnHftKIiIi2DQrhw61ViGdmwZ09NmPzuHwGf4lsaIiIvFd7ZT3m01Vtqm5w1EZY7iOBHMHIjuXKt2ttRZ7tVW6qbqzU8hY7gctxHIjIjvXjRERFK4dv9Xhq9QXOjd14zk9hOyRh3tPI/PIrp6yXmkv9op7lQv1oZm55He09rTzB2KQRZXpP0eecGS36zw/tbRrVMDB+9HtNHtcR29+/EEREX1p6mekqI6imlfDNG7WZJG4hzTxBC2LCGmGKVsdFiQdHJsaK2NvVd+No3d42cgtYgqIaqBk9PKyWGQazJI3BzXDiCN6+iIiKkaWo9fR5Wu/hyRO/WB9VzmiIt00IR5YYuEntVpb7mN/ytPRERfOoqIaWnfPUSshhjGs+SRwa1o4kncsnxfpiijbJRYab0km1prZG9Vv4Gnf3nZyKx2oqJquokqKmV8s0jtZ8j3EuceJJXyRERbfow0eeb2RX68Q/tbhrU0Dx+6HtOHtcB2d+7VEXgvV4pLDaai5Vz9WGFuZ4uPY0cydi5gxHf6vEt7nudYetIcmRg7I2Dc0d3xOZUUiIiL2Wq21F4utLbqVutNUSCNvAZ9p5AbT3Lqq0WunstopbbStyhp4wxvE8SeZOZPevaiIiIsl0y4V6anjxHSR9eICKrAG9v2XeB2HkRwWLIiIiK76N8bOwtdvJqt581VTgJRv6J24PHyPLuC6KjkZLG2SN7XseA5rmnMEHcQV+kWO6StGr3STX2xQa2tm+qpGDbn2vYPmPELHkRERT+G8ZXrC02duqc4HHN9PL1o3eHYeYyK2HDel2yXbUguYNsqjszkOcTjyd2eOQ5rQY5GSxtkje17HDNrmnMEcQV+kRVPSZH0uju7t4MY73SNP0XNCIi3/QvHqYImd7dbI79LB9FoiIvzJIyGN0kr2sY0Zuc45ADiSs9xJpestp14LWDc6kbM2HViafxfa8NnNY/iTGV6xTNrXGp9CDmyni6sbfDtPM5lQCIiIth0a6NXtkhvt9g1dXJ9LSPG3Pse8fIeJWxIvzI9kUbpJHtYxoLnOccgAN5JXO2kjGxxTdvJqR581UriIuzpXbi8/Icu8qjoiIiLaNDeFOhp5MSVcfXlBipARubuc7xOwcgeK1tERERF8qqmhraWalqIxJDMwskYdzmkZELl/F+Gp8K4hnt8us6H16eQ/bjO49/YeYKgURERFqGjHSH5qkjsd3m/YHnKnnef3Dj9kn2T8O7due/aERZVpD0YNuHS3iwxBtXtdPSNGQl4ubwdy7e/fiT2Oje5j2lrmnIgjIg8F/ERERS9nxPe7A8G2XGeBueZjDtZh72nMH3LRbJpumZqx3u2tlHbNSHVd+RxyPvCvVs0mYUueqG3RlNIfsVTTHl/Mer8VaYKiGpibLTzRyxnc+NwcD4hQeOY+lwLe28KR7vcM/ouXERF0Rohj1NH9O7255Xfqy+iu89RDSxGWomjijbvfI4NA8Sqrc9JmFLZm110ZUyD7FK0yZ/wAw6vxVGvem6eTWjsltbEOyarOs7wY3YPeVnN4xPer+8uudxnqG55iMuyYO5oyA9yiURERf1jHSPaxjS5zjkABmSeC23R5owbb+ivF+iDqvY6CkcMxFwc7i7l2d+7VUTdtKwzSdpD86ySWO0TfsLDlUTsP79w+yD7I+Pdvy9ERERT2EMNT4qxDBb4tZsPr1Eg+xGN57+wcyF1BS00NFSw0tPGI4YWBkbBua0DIBfVEREREVQ0iYRGKsPuEDB5xpc5KY+1xZ45e8Bc2vY6N7mPaWvaSHNIyII7CvyiIiItd0a6SmU8cNivs2UYyZS1TzsaOxjzw4Hs3HYtm37QiKk410cW7FLH1VPq0d0y2TgdWTk8Df37+/csDvVjuOH7g+iuVM6GZu0Z7WvHFp3EKORERERfanrKmjfr01RNA7jE8tPwUv/wBZ4kNHNSPvNZLTzRuikZNJ0gc1wyI62fYVBIiKWpsUX2it0dBSXarp6WPPVjhkLAMySd2R3kqPqKuprH69TUSzv4yvLj8V8UREREUjZbHccQXBlFbaZ00ztpy2NYOLjuAW+YK0cW7CzGVVRq1l0y2zuHVj5MB3d+/u3K7Im7aVjOkrSUyojmsVimzjObKqrYdjh2sYeHE9u4bFkSIiIi/TGOke1jGlz3EBrQMySewLpLR3hEYVw+0TsHnGqykqT7PBnhn7yVb0REREREWLaXcFdBMcSW+L0UhArGNHquO6TuO488j2lZKiIiIi1DR5pOfauitF9lc+h2NhqTtdBwDuLfl3btxZIyWNskb2vY4BzXNOYIO4gr9Ioy+YftmI6E0dzpWzR72u3OYeLTvBWJYt0T3Sya9Xate4UI2kNHpYxzaPWHMe4LPCMthREREREREREREREyz2BaHhLRPdL3qVd117fQnaA4elkHJp9Ucz7ittseH7ZhyhFHbKVsMe9zt7nni47yVJovzJIyKN0kjmsY0FznOOQAG8krDtIek5916W0WKVzKHa2apGx0/EN4N+fdvy9ERERFrWiLBXTzDElwi9FGSKNjh6zhvk7huHPM9gW0oiIiIiIi+c8EVTBJBPG2SKRpa9jhmHNOwghc36QMFy4SvGcIc+21BLqeQ7dXiwniPiPFVBERERFeME6SLhhZzKSp1qu1Z/uievFzYT/SdndvW+We9W+/W9ldbalk8Lu0b2ng4bweRXvRFTsUaNrHiZz6gsNFXO2mogA6x++3c7v2HmsdxJo1xBh3Xl8n8to27enpgXZD7zd4+XNU9EREREREREREVxw3o1xBiLUl6DyKjdt6epBbmPut3n5c1sOF9G1jwy5lQGGtrm7RUTgdU/cbub37TzVxRF4LxerfYbe+uuVSyCFvad7jwaN5PILA8baSLhilz6Sm1qS1Z/ugevLzeR/SNnfvVHRERERW/R/guXFt4zmDmW2nIdUSDZrcGA8T8B4LpCCCKmgjggjbHFG0NYxoyDWjYAAvoiIiIiIiIo6+WSixDaZrbXx68Mg2Eesx3Y5p7CFzNijDVbhW8yW+sGY9aGUDqys7HD6jsKhkREREUrYMR3PDVwFZbKgxu2B8Z2skHBw7fmOxbzhLSVZ8TCOmlcKG4nIdBK7qvP3Hdvdv71dURFVb/o7w5iF75aii8nqXb56Y6jieJHqk8yM1mt70LXak1pLRWRV0Y2iKT0Undt6p94WfXKzXKzzdDcaGopX9nSsIB7juPgvCiIiIiIiL3W2zXK8TdDbqGoqn9vRMJA7zuHitBsmha7VerJd6yKhjO0xR+lk7tnVHvK0qwaO8OYeeyWnovKKlu6epOu4HiB6oPMDNWpERUrFukqz4ZElNE4V1xGY6CJ3VYfvu7O7f3LBr/iO54luBrLnUGR20MjGxkY4NHZ8z2qKRERERTOGMNVuKbzHb6NuQPWllI6sTO1x+g7SumbHZKLD1phttBHqQxDaT6z3drnHtJUiiIiIiIiIiKCxZhWhxbaHUVWNSVuboJwOtE7jzB7R2+4rmq+WOuw7dZbdcItSaM7CPVe3sc09oKjkRERETdtC0LCWle6WPUpbpr3GgGwFzvSxjk4+sOR94W1WLE1nxHT9LbK2OYgZuizyez8TTtHfuUuiIvzLFHNGY5Y2yMdsLXjMHwVYuejnCl11jLaYoZD9umJiI8G7D4hU64aDqR7i623maJvYyoiD/1Aj5KvVehbEcOZp6mgqW9gEjmu9xbl8VA1WjbF1IevZZnjjE9kmf5SV4JMHYmi9awXPwpXn5BeWTD96i/eWivZ+KmePokeH71L+7tFe/8ADTPP0XqjwdiaX1bBc/GlePmF76XRti6rPUsszBxleyPL8xCnqTQtiObI1FTQUze0GRzne4Ny+KsNv0HUjHB1yvM0re1lPEGfqJPyVxtmjnClq1TFaYppB9upJlJ8HbB4BWeKKOGMRxRtjY3YGsGQHgv0iIoi+4ms+HKfpbnWxwkjNsWeb3/haNp79yxXFule6XzXpbXr26gOwlrvSyDm4eqOQ95We79pRERERFI2Ox12IbrFbrfFrzSHaT6rG9rnHsAXSmE8K0OErQ2ipRryuydPOR1pXceQHYOz3lTyIiIiIiIiIiKu4wwfQ4vtfk9R6KpjzNPUAZujPDm09oXN98sdfh66S2+4wmOZm0He17exzT2gqORERERF9aepnpJ2T000kMzDm2SNxa5p5ELSMN6ZLpb9SC9Qi4U42dK3JsrR8neOR5rWLFjKw4iY3zfcInTH/QkOpIP5TtPhmFPIiIiIiIiIiIigb7jKw4dY7zhcImzD/QjOvIf5RtHjkFk+JNMl0uGvBZYRb6c7Oldk6Vw+TfDM81m9RUz1c756maSaZ5zdJI4uc48yV8kRERERSNjsdfiG6R2+3QmSZ+0nc1je1zj2ALpDB+D6HCFr8np/S1MmRqKgjJ0h4Dg0dgViREREREREREREUFirCduxbbDSVrdSVmZhqGjrxO5cRxHb7iuc8S4XuWFbkaO4RbDmYpm+pKOIPzG8KFREREREQEggg5EbirZZNJGJrHqsjr3VUA/0av0jcuAPrDwK0azaa7VUtay70U1HJ2yRekZ39jh7irvbMXYevGQobvSyvO6Mv1Hn+V2R+CmkRERERERQtzxdh6z5iuu9LE8b4w/XeP5W5n4KkXnTXaqZrmWiimrJOySX0bO/tcfcFnN70kYmvmsySvdSwH/RpPRty4E+sfEqpkkkknMneUREREREUzhrDFyxTchR2+LMDIyzO9SIcSfkN5XRmFcJ27CVsFLRN15X5GeocOvKefAcB2e8qeRERERERERERERFHXux2/ENtkoLlAJYXbQdzmHsc09hXPmNNH9xwlOZgDU21zso6lo9Xg147D8D8FUERERERERFMWzFd/s2qKC7VULG7o+kLmflOY+CtdFplxNTZCoZRVbe0yRFrv0kD4KwUunNhyFXYiOLoanP4Fv1UxBprw5IB01JcYndvo2OHwd9F74tLmEZB1qyeL8dO/6Ar0N0p4Md/wB4y76aX/4o7Sngxv8A3jPuppf/AIrzy6XMIxjq1k8v4Kd/1AXgn014cjB6GkuMruz0bGj4u+ih6rTmwZiksRPB01Tl8A36qv1umXE1TmKdlFSN7DHEXO/USPgqpc8V3+86wr7tVTMdvj6QtZ+UZD4KHREREREREVvwXo/uOLZxMQaa2tdlJUuHrcWsHafgPgug7JY7fh62x0FtgEULdpO9zz2uce0qRRERERERERERERERfOeCKpgfBPEyWKRpa9j25tcDvBB3rGsa6IpIOkuGG2uki2ufRE5ub+A9o5Hbwz3LJ3sdG9zHtLXtJDmkZEHgV+URERERERERERERERERERERF+mMdI9rGNLnuIDWgZkngFrGCtEUk/R3DEjXRxbHMogcnO/Gewcht45blssEEVNAyCCJkUUbQ1jGNya0DcABuX0RERERERERERERERERVDF2ju0Yqa6ct8kuOWypib634x9r581hOJcIXfCtV0dwp/QuOUdRHtjf3HsPI5FQKIiIiIiIiIiIiIiIiIiIiKew1hC74qquit9P6FpykqJNkbO89p5DMrdsI6O7RhVrZw3yu45bamVvq/gH2fnzVvRERERERERERERERERERfKppYKynfT1UMc0MgyfHI0Oa4cwVlOK9DcM2vV4clEMm80cruofwuO7uOzmFkdytVfZ6t1LcaSWmmb9iRuWY4g7iOYXjREREREREREREREREREXsttqr7xVtpbdSS1Mx+xG3PIcTwHMrXMKaG4odSrxJKJX7xRxO6o/E4b+4bOZWq01LBRU7KelhjhhjGTI42hrWjkAvsiIiIiIiIiIiIiIiIiIiIi8V0tFvvVI6luVHFUwn7Mjc8jxB3g8wsqxHoVOb58PVYy3+S1J+DX/AOR4rLbrZLnY6nye50U1NJ2dI3Y7uO4juXgRERERERERERERERF77VZLnfKnye2UU1TJ29G3Y3vO4DvWpYc0KnNk+IawAb/JaY/Bz/oB4rVbXaLdZaQUtto4qaEfZjblmeJO8nmV7URERERERERERERERERERERERfCsoqW4U7qespoqiF2+OVgc0+BWf33Q3Y7hrS2uaW3THbqj0kZPcTmPA+CzW86LsUWfWe2iFdCP9SkOufy+t8FT5I3wyOjlY5j2nJzXDIg8wvyiIiIiIiIiIiL9RxvmkbHExz3uOTWtGZJ5BXCzaLsUXjVe6iFDCf8AUqzqH8vrfBaVYtDdjt+rLdJpbjMNuqfRxg9wOZ8T4LQKOipbfTtp6Omip4W7o4mBrR4BfdERERERERERERERERERERERERERFHXSwWm9M1blbqap2ZB0kYLh3O3jwKpF10L2Cr1nW+oqaB53DPpWDwdt/UqXcdC+IqXN1FPR1rBuAeY3nwds+KqdwwfiO1k+V2asYBve2IvZ+ZuY+KhSC1xBBBG8FfxERERERf0AucAASTuAU1b8H4juhHklmrHg7nuiLGfmdkPirZbtC+IqrJ1bPR0TDvBeZHjwbs+Kulq0L2Ck1XXCoqa943jPomHwbt/Urva7BabKzVttupqbZkXRxgOPe7efEqRRERERERERERERERERERERERERERERERF5Ky12+4NyraGmqRwmia/5hQFVo3wjV5l9khYT/Cc+P+khQ9ToawtPtidX0/8A65gR+ppUbNoOtbv3F3rGfjY13yyXifoK29TEWzg6j/8A3XxdoLqB6t/iPfSkf3I3QXUH1r/EO6lJ/uX2ZoK29fEWzg2j/wD3Xth0HWtv7+71j/wMa355qSptDWFoNsrq+o/9kwA/S0KZpdG+EaTIsskLyP4znyf1Eqeo7Xb7e3KioaamHCGJrPkF60REREREREREREREREX/2Q==;opacity=50;" parent="1" vertex="1">
          <mxGeometry x="144" y="40" width="512" height="512" as="geometry" />
        </mxCell>
        <mxCell id="WelgVeyDKxLRvEI-DW8B-2" value="" style="fontColor=#0066CC;verticalAlign=top;verticalLabelPosition=bottom;labelPosition=center;align=center;html=1;outlineConnect=0;gradientColor=none;gradientDirection=north;strokeWidth=2;shape=mxgraph.networks.hub;fillColor=#FDD276;" parent="1" vertex="1">
          <mxGeometry x="324" y="272" width="160" height="48" as="geometry" />
        </mxCell>
        <mxCell id="WelgVeyDKxLRvEI-DW8B-13" value="" style="fontColor=#0066CC;verticalAlign=top;verticalLabelPosition=bottom;labelPosition=center;align=center;html=1;outlineConnect=0;gradientColor=none;gradientDirection=north;strokeWidth=2;shape=mxgraph.networks.pc;fillColor=#4A919B;" parent="1" vertex="1">
          <mxGeometry x="156.85000000000002" y="340" width="147.15" height="103" as="geometry" />
        </mxCell>
        <mxCell id="WelgVeyDKxLRvEI-DW8B-14" value="" style="fontColor=#0066CC;verticalAlign=top;verticalLabelPosition=bottom;labelPosition=center;align=center;html=1;outlineConnect=0;gradientColor=none;gradientDirection=north;strokeWidth=2;shape=mxgraph.networks.pc;fillColor=#4A919B;" parent="1" vertex="1">
          <mxGeometry x="496.85" y="337" width="147.15" height="103" as="geometry" />
        </mxCell>
        <mxCell id="WelgVeyDKxLRvEI-DW8B-15" value="" style="fontColor=#0066CC;verticalAlign=top;verticalLabelPosition=bottom;labelPosition=center;align=center;html=1;outlineConnect=0;gradientColor=none;gradientDirection=north;strokeWidth=2;shape=mxgraph.networks.pc;fillColor=#4A919B;" parent="1" vertex="1">
          <mxGeometry x="319" y="430" width="147.15" height="103" as="geometry" />
        </mxCell>
        <mxCell id="WelgVeyDKxLRvEI-DW8B-16" value="" style="fontColor=#0066CC;verticalAlign=top;verticalLabelPosition=bottom;labelPosition=center;align=center;html=1;outlineConnect=0;gradientColor=none;gradientDirection=north;strokeWidth=2;shape=mxgraph.networks.pc;fillColor=#4A919B;" parent="1" vertex="1">
          <mxGeometry x="156.85000000000002" y="160" width="147.15" height="103" as="geometry" />
        </mxCell>
        <mxCell id="WelgVeyDKxLRvEI-DW8B-17" value="" style="fontColor=#0066CC;verticalAlign=top;verticalLabelPosition=bottom;labelPosition=center;align=center;html=1;outlineConnect=0;gradientColor=none;gradientDirection=north;strokeWidth=2;shape=mxgraph.networks.pc;fillColor=#4A919B;" parent="1" vertex="1">
          <mxGeometry x="330.43" y="57" width="147.15" height="103" as="geometry" />
        </mxCell>
        <mxCell id="WelgVeyDKxLRvEI-DW8B-18" value="" style="fontColor=#0066CC;verticalAlign=top;verticalLabelPosition=bottom;labelPosition=center;align=center;html=1;outlineConnect=0;gradientColor=none;gradientDirection=north;strokeWidth=2;shape=mxgraph.networks.pc;fillColor=#4A919B;" parent="1" vertex="1">
          <mxGeometry x="504" y="160" width="147.15" height="103" as="geometry" />
        </mxCell>
      </root>
    </mxGraphModel>
  </diagram>
</mxfile>
